<?xml version="1.0" standalone="no"?>
<!DOCTYPE svg PUBLIC "-//W3C//DTD SVG 20010904//EN"
 "http://www.w3.org/TR/2001/REC-SVG-20010904/DTD/svg10.dtd">
<svg version="1.0" xmlns="http://www.w3.org/2000/svg"
 width="120.000000pt" height="100.000000pt" viewBox="0 0 120.000000 100.000000"
 preserveAspectRatio="xMidYMid meet">

<g transform="translate(0.000000,100.000000) scale(0.100000,-0.100000)"
fill="#000000" stroke="none">
<path d="M838 799 c-33 -25 -34 -38 -8 -81 11 -18 20 -42 20 -54 0 -29 -31
-54 -66 -54 -86 0 -154 -51 -154 -116 0 -35 -9 -41 -39 -24 -20 10 -51 78 -51
109 0 33 -113 42 -193 15 -90 -30 -125 -106 -78 -165 17 -22 17 -27 5 -44 -21
-28 -17 -82 6 -105 24 -24 102 -27 140 -5 33 19 65 19 95 -1 19 -12 36 -15 71
-9 26 4 67 2 94 -5 37 -9 57 -9 91 1 l44 13 -32 5 c-48 9 -73 35 -73 76 0 21
5 35 13 35 6 1 32 5 56 9 36 7 46 6 62 -10 24 -24 24 -64 0 -88 -18 -18 -17
-19 19 -35 46 -20 63 -20 102 0 29 15 33 15 68 -5 42 -23 90 -27 139 -10 37
13 41 29 6 29 -33 0 -81 25 -89 45 -16 41 -7 52 44 58 64 8 70 12 70 48 0 27
-3 30 -22 23 -36 -12 -62 -7 -80 17 -23 28 -23 41 3 73 22 28 48 33 80 16 11
-6 19 -7 19 -1 0 29 -80 27 -108 -2 -47 -50 -16 -118 63 -135 l40 -9 -40 -11
c-52 -15 -61 -15 -100 4 -104 49 -40 164 108 194 37 7 38 8 11 9 -84 3 -184
-67 -184 -129 0 -34 -19 -40 -44 -14 -13 13 -16 43 -16 173 0 109 -4 161 -12
169 -18 18 -49 14 -80 -9z m76 -21 c3 -13 6 -89 6 -170 0 -148 0 -148 26 -164
l26 -17 -24 -13 c-55 -31 -88 0 -88 82 0 51 -1 52 -40 68 -55 22 -86 20 -104
-6 -33 -47 -16 -109 37 -132 l32 -14 -50 -1 c-73 -1 -95 17 -90 75 6 76 62
114 169 114 l46 0 0 54 c0 39 -6 60 -21 80 -12 15 -20 28 -18 30 55 42 84 46
93 14z m-422 -184 c34 -6 37 -9 43 -49 7 -52 35 -90 72 -100 26 -7 26 -8 8
-15 -31 -13 -91 -11 -103 3 -6 7 -20 38 -32 69 -21 56 -22 57 -67 64 -57 8
-77 -3 -81 -45 -5 -48 20 -79 65 -83 l38 -3 -43 -13 c-58 -18 -99 -8 -117 28
-21 40 -19 54 11 89 39 46 122 69 206 55z m316 -44 c38 -17 42 -23 42 -53 0
-40 -11 -47 -72 -47 -62 0 -87 48 -52 98 18 27 27 27 82 2z m-390 4 c23 -5 34
-14 41 -37 14 -40 16 -36 -25 -53 -43 -18 -67 -12 -82 22 -15 32 -15 47 0 62
14 14 23 14 66 6z m234 -147 c0 -4 -5 -28 -11 -52 -8 -33 -16 -45 -29 -45 -21
0 -57 36 -66 66 -6 18 -1 22 36 31 48 12 69 12 70 0z m365 2 c8 -8 7 -18 -3
-37 -7 -15 -16 -39 -19 -54 -7 -35 -28 -36 -54 -2 -32 41 -27 66 17 86 47 20
46 20 59 7z m-567 -19 c40 -40 17 -93 -40 -93 -41 0 -70 29 -70 69 0 29 3 33
33 37 17 2 38 5 45 5 6 1 21 -7 32 -18z"/>
<path d="M55 591 c-27 -9 -50 -23 -49 -29 1 -7 2 -28 2 -47 3 -50 31 -75 86
-75 25 0 57 5 72 10 50 19 36 2 -23 -26 -36 -18 -74 -29 -100 -29 l-43 0 0
-79 0 -78 53 4 c56 5 128 35 135 57 3 9 -5 10 -34 5 -82 -17 -134 4 -134 53 0
18 6 23 28 24 15 0 53 6 86 13 60 12 86 33 86 69 0 15 -5 18 -22 13 -90 -25
-119 -28 -143 -12 -30 20 -41 54 -23 72 17 18 42 20 101 10 37 -7 52 -5 72 8
28 19 33 41 9 50 -30 11 -109 5 -159 -13z m149 0 c17 -7 16 -9 -8 -24 -22 -15
-32 -16 -71 -6 -43 11 -54 10 -100 -6 -20 -6 -20 -6 0 6 49 31 138 46 179 30z"/>
</g>
</svg>
